<svg xmlns="http://www.w3.org/2000/svg" width="51" height="45" viewBox="0 0 51 45"><path fill="#8f9a9b" d="M25.96 44.01l-.3-.02c-4.98-.62-20.43-14.53-23.98-25.95l-.07-.2c-.13-.44-.27-.94-.37-1.43A9.44 9.44 0 0 1 1 14.07a1.7 1.7 0 0 1-.02-.26C1 6.19 7.41 0 15.3 0c4.11 0 8 1.71 10.7 4.65A14.53 14.53 0 0 1 36.69 0c7.88 0 14.3 6.19 14.3 13.81 0 .48-.03.96-.09 1.48l-.02.11a13.2 13.2 0 0 1-.7 2.96C46.64 29.2 31.78 43.3 26.3 43.99l-.14.01-.21.01zM4.06 17.06l.04.13c3.26 10.74 18.04 23.77 21.85 24.29l.12-.01c3.88-.65 18.15-13.14 21.67-23.92a11 11 0 0 0 .6-2.47l.01-.11c.04-.38.06-.78.06-1.16 0-6.22-5.26-11.29-11.73-11.29-3.84 0-7.44 1.82-9.64 4.87l-1.05 1.46-1.05-1.46a11.88 11.88 0 0 0-9.64-4.87c-6.47 0-11.74 5.07-11.74 11.29l.02.26c-.02.61.04 1.18.17 1.82.09.38.2.78.31 1.17z"/></svg>