<svg xmlns="http://www.w3.org/2000/svg" width="52" height="50" viewBox="0 0 52 50"><path fill="#8f9a9b" d="M33.97 15.91l14.81 3.74-9.88 12.12 1.18 15.88L26 41.57l-14.08 6.08 1.18-15.88-9.88-12.12 14.8-3.74L26 2.34zM24.1 1.12l-7.5 12.75-13.9 3.51c-.76.19-1.36.77-1.6 1.54-.24.78-.08 1.62.42 2.24l9.28 11.39-1.1 14.92c-.07.81.28 1.59.9 2.07a2.12 2.12 0 0 0 2.16.27l13.24-5.71 13.23 5.71a2.12 2.12 0 0 0 2.16-.27c.63-.48.98-1.26.92-2.07L41.2 32.55l9.28-11.39c.5-.62.66-1.46.42-2.24a2.26 2.26 0 0 0-1.6-1.54l-13.9-3.51-7.5-12.75A2.2 2.2 0 0 0 26 0c-.78 0-1.5.42-1.9 1.12z"/></svg>
