<svg xmlns="http://www.w3.org/2000/svg" width="52" height="57" viewBox="0 0 52 57"><path fill="#f28292" d="M36.53 17.07c.6.43.73 1.24.3 1.83l-9.75 13.29c-.25.34-.65.54-1.08.54H13.04c-.74 0-1.33-.59-1.33-1.31 0-.72.6-1.3 1.33-1.3h12.28l9.35-12.75a1.34 1.34 0 0 1 1.86-.3zM51 31.42A24.6 24.6 0 0 0 36.12 8.95l-1.4 2.23a22.02 22.02 0 0 1 13.63 20.24C48.35 43.54 38.32 53.4 26 53.4c-12.33 0-22.35-9.86-22.35-21.98 0-11.56 9.13-21.05 20.67-21.89l-3.73 3.55a1.37 1.37 0 0 0 0 1.95c.54.53 1.43.53 1.97 0l6.15-5.85a1.36 1.36 0 0 0 0-1.95l-6.15-5.85a1.4 1.4 0 0 0-1.97 0 1.35 1.35 0 0 0 0 1.94l3.77 3.59C11.33 7.75.99 18.41.99 31.42 1 44.98 12.21 56.01 26 56.01c13.79 0 25-11.03 25-24.59z"/></svg>